<?xml version="1.0" encoding="utf-8"?>
<!-- Generator: Adobe Illustrator 24.0.2, SVG Export Plug-In . SVG Version: 6.00 Build 0)  -->
<svg version="1.1" id="Capa_1" xmlns="http://www.w3.org/2000/svg" xmlns:xlink="http://www.w3.org/1999/xlink" x="0px" y="0px"
	 viewBox="0 0 200 200" style="enable-background:new 0 0 200 200;" xml:space="preserve">
<style type="text/css">
	.st0{display:none;fill:#343A40;}
	.st1{fill:#FFFFFF;}
	.st2{display:none;}
	.st3{display:inline;fill:#FFFFFF;}
	.st4{display:none;fill:#FFFFFF;}
</style>
<rect y="0" class="st0" width="200" height="200"/>
<path class="st1" d="M150,68.7h-37.5v-25c0-6.9,5.6-12.5,12.5-12.5h12.5V0h-25l0,0C91.8,0,75,16.8,75,37.5v31.3H50V100h25v100h37.5
	V100h25L150,68.7z"/>
<g class="st2">
	<path class="st3" d="M120.6,45H79.4C60.4,45,45,60.4,45,79.4v41.3c0,19,15.4,34.4,34.4,34.4h41.3c19,0,34.4-15.4,34.4-34.4V79.4
		C155,60.4,139.6,45,120.6,45z M144.7,120.6c0,13.3-10.8,24.1-24.1,24.1H79.4c-13.3,0-24.1-10.8-24.1-24.1V79.4
		c0-13.3,10.8-24.1,24.1-24.1h41.3c13.3,0,24.1,10.8,24.1,24.1V120.6z"/>
	<path class="st3" d="M100,72.5c-15.2,0-27.5,12.3-27.5,27.5s12.3,27.5,27.5,27.5s27.5-12.3,27.5-27.5S115.2,72.5,100,72.5z
		 M100,117.2c-9.5,0-17.2-7.7-17.2-17.2s7.7-17.2,17.2-17.2s17.2,7.7,17.2,17.2C117.2,109.5,109.5,117.2,100,117.2z"/>
	<circle class="st3" cx="129.6" cy="70.4" r="3.7"/>
</g>
<g class="st2">
	<rect x="45" y="79.4" class="st3" width="24.6" height="75.6"/>
	<path class="st3" d="M136.6,80.3c-0.3-0.1-0.5-0.2-0.8-0.3c-0.3-0.1-0.7-0.1-1-0.2c-1.3-0.3-2.7-0.4-4.4-0.4l0,0l0,0
		c-14.3,0-23.4,10.4-26.4,14.5V79.4H79.4V155H104v-41.3c0,0,18.6-25.9,26.4-6.9c0,17,0,48.1,0,48.1H155v-51
		C155,92.5,147.2,83,136.6,80.3z"/>
	<circle class="st3" cx="57" cy="57" r="12"/>
</g>
<path class="st4" d="M150.3,69.5c-3-5.3-6.2-6.3-12.8-6.7c-6.6-0.5-23.2-0.6-37.5-0.6c-14.4,0-30.9,0.2-37.5,0.6
	c-6.6,0.4-9.8,1.3-12.8,6.7C46.6,74.8,45,83.9,45,100c0,0,0,0,0,0c0,0,0,0,0,0v0c0,16,1.6,25.2,4.7,30.4c3,5.3,6.3,6.3,12.8,6.7
	c6.6,0.4,23.2,0.6,37.5,0.6c14.3,0,30.9-0.2,37.5-0.6c6.6-0.4,9.8-1.4,12.8-6.7c3.1-5.3,4.7-14.4,4.7-30.4c0,0,0,0,0,0c0,0,0,0,0,0
	C155,83.9,153.4,74.8,150.3,69.5z M86.3,120.6V79.4l34.4,20.6L86.3,120.6z"/>
</svg>
