<?xml version="1.0" encoding="utf-8"?>
<!-- Generator: Adobe Illustrator 24.0.2, SVG Export Plug-In . SVG Version: 6.00 Build 0)  -->
<svg version="1.1" id="Capa_1" xmlns="http://www.w3.org/2000/svg" xmlns:xlink="http://www.w3.org/1999/xlink" x="0px" y="0px"
	 viewBox="0 0 480 80" style="enable-background:new 0 0 480 80;" xml:space="preserve">
<style type="text/css">
	.st0{clip-path:url(#SVGID_2_);fill:#FFFFFF;}
</style>
<g>
	<defs>
		<rect id="SVGID_1_" width="478.81" height="80.23"/>
	</defs>
	<clipPath id="SVGID_2_">
		<use xlink:href="#SVGID_1_"  style="overflow:visible;"/>
	</clipPath>
	<path class="st0" d="M73.1,26.12c-0.3-1.01-1.82-1.1-2.37-1.1c-0.13,0-0.2,0-0.2,0h-3.49l-4.38,5.85l4.53,0.01
		c1.57,0,2.92-0.29,3.79-0.81C71.79,29.6,73.55,27.65,73.1,26.12 M202.71,28c0,0,0.38-0.62,0.15-1.34c-0.17-0.6-0.7-0.98-1.6-0.98
		h-6.8l-4.04,5.46h10.12L202.71,28z M215.12,19.78c2.59,4.38,0.72,8.94-0.27,10.37c-0.97,1.43-13.58,17.35-13.58,17.35h-13.78
		l4.83-6.35h-9.39l-4.91,6.35h-13.61l23.87-31.92h18.16c0,0,0.02,0,0.1,0C207.34,15.57,212.72,15.73,215.12,19.78 M182.65,15.57
		L158.7,47.59h-13.88l11.27-14.75l-13.86,7.06l-0.7-7.51l-12.26,15.3h-13.23l24.05-32.02h11.89l0.9,8.23l13.95-8.32H182.65z
		 M134.9,15.58c0,0-19.31,25.39-19.76,25.93c-0.45,0.54-4.04,4.11-7.97,5.82c-2.74,1.19-6.65,1.37-8.75,1.37
		c-0.87,0-1.45-0.03-1.45-0.03l-7.05-0.36c-3.14-0.27-6.7-2.14-7.97-5.72c-1.25-3.58,1.44-7.15,1.44-7.15l14.93-19.76h14.4
		c0,0-13.11,17.29-14.03,18.33c-2.24,2.51-0.2,4.38,1.42,4.38c3.32,0,4.83-2.32,4.83-2.32l14.83-20.48H134.9z M85.36,28.61
		l-4.59,6.21c0,0-3.76,5.81-13.18,5.81c-0.32,0-0.65-0.01-0.97-0.02H54.04l-5.73,7.11l-13.18,0.02l23.6-31.84l20.93-0.08
		c0,0,0.1-0.01,0.3-0.01c1.22,0,5.51,0.27,6.9,4.01C88.53,24.29,85.36,28.61,85.36,28.61 M259.88,0H45.6L0,61h214.28L259.88,0z"/>
	<path class="st0" d="M433.21,61H218.55l45.6-61h214.66L433.21,61z M344.82,34.38c4.09,0,8.47,1.15,13.21,2.83
		c7.17,2.55,15.57,4.64,15.57,4.64c15.42,2.24,33.54,9.13,37.13,10.18c1.84,0.54,3.77,0.95,5.23,0.95c1.4,0,2.42-0.38,2.54-1.4
		c0.3-2.1-2.99-2.1-5.08-2.1c-2.09,0-5.83-1.5-5.83-1.5s-9.75-5.84-13.03-8.08c-3.29-2.25-4.04-4.19-1.5-4.64
		c0.5-0.09,1-0.13,1.47-0.13c1.97,0,3.81,0.6,5.86,0.73c2.57,0.15,3.76-0.15,5.7,1.35c0.65,0.5,1.18,0.66,1.6,0.66
		c0.85,0,1.25-0.66,1.25-0.66s3.14-2.1,4.19-3.74c1.05-1.65,0.15-2.4,0.15-2.4s-0.6-1.5-2.24-5.69c-1.45-3.71-6.08-4.37-7.53-4.37
		c-0.2,0-0.35,0.01-0.4,0.02c-0.07,0.02-0.15,0.02-0.2,0.02c-0.5,0-0.87-0.47-0.87-0.47l-1.49-1.94c0,0-4.44,3.62-7.7,3.62
		c-0.18,0-0.35-0.01-0.52-0.03c-5.83-0.79-6.13-4.04-22.15-5.99c-2.69-0.32-5.58-0.46-8.6-0.46c-14.95,0-32.3,3.41-35.29,3.91
		c-0.8,0.13-1.72,0.18-2.66,0.18c-3.29,0-6.93-0.63-6.93-0.63c-8.47-1.1-17.27-1.46-25.19-1.46c-15.9,0-28.41,1.46-28.41,1.46
		s-4.93,0.6-4.64,2.1c0.3,1.5,4.34,1.5,4.34,1.5l0.87,0.01c2.14-0.03,14.38-1.63,23.55-1.63h0.27c9.17,0.03,19.91,0.88,19.91,0.88
		c0.02,0,0.07,0,0.1,0c1.52,0,7.45,0.56,9.47,1c2.1,0.45,2.99,1.39,3.44,2.09c0.45,0.69,0.25,1.51-0.6,2.7
		c-0.85,1.18-4.81,4.21-6.95,5.64c-1.49,0.99-3.48,1.2-5.58,1.2c-0.95,0-1.9-0.04-2.84-0.08c-0.11,0-0.21,0-0.28,0
		c-2.86,0-4.04,1.85-4.04,1.85c-4.46,4.39-8.37,6.55-9.39,7.12c-1.05,0.57-2.59,1.46-3.46,2.16c-0.87,0.69-3.89,1.48-5.71,1.63
		c-1.82,0.16-1.97,0.94-1.97,0.94l-1.35,2.28c-0.77,1.2,0.63,1.27,0.63,1.27c1.62,0.28,2.99,0.41,4.21,0.41
		c4.83,0,7.22-2.11,13.43-5.84c5.28-3.17,8.35-3.86,11.41-3.86c1.57,0,3.14,0.17,5.03,0.29c1.22,0.07,2.42,0.13,3.64,0.13
		c2.99,0,5.93-0.35,8.49-1.63c3.59-1.8,7.93-3.89,13.63-5.99C340.66,34.69,342.7,34.38,344.82,34.38"/>
	<path class="st0" d="M47.89,79.94h-5.62c-0.29,0-0.36-0.05-0.36-0.35V68.59c0-0.31,0.07-0.35,0.36-0.35h5.59
		c0.35,0,0.45,0.03,0.45,0.18l-0.08,0.24l-0.32,1.14c-0.05,0.26-0.25,0.27-0.37,0.27h-3.32v2.83h2.9c0.32,0,0.38,0.04,0.38,0.36
		v1.12c0,0.31-0.08,0.36-0.38,0.36h-2.9v3.34h3.65c0.32,0,0.37,0.05,0.37,0.36v1.13C48.23,79.89,48.19,79.94,47.89,79.94"/>
	<path class="st0" d="M78.24,79.94h-1.12c-0.25,0-0.3-0.03-0.4-0.24l-3.11-5.82c-0.52-0.96-0.8-1.55-0.97-2.32h-0.05
		c0,0.23,0.05,1.09,0.05,1.88v6.15c0,0.3-0.05,0.35-0.35,0.35h-1.24c-0.3,0-0.35-0.05-0.35-0.35V68.59c0-0.31,0.05-0.35,0.35-0.35
		h1.4c0.25,0,0.3,0.03,0.4,0.21l2.81,5.3c0.48,0.91,0.8,1.77,1,2.48h0.05c0-0.55-0.05-1.74-0.05-2.22v-5.41
		c0-0.31,0.07-0.35,0.35-0.35h1.24c0.3,0,0.37,0.05,0.37,0.35v10.99C78.61,79.89,78.56,79.94,78.24,79.94"/>
	<path class="st0" d="M107.72,79.94h-5.61c-0.3,0-0.37-0.05-0.37-0.35V68.59c0-0.31,0.07-0.35,0.37-0.35h5.61
		c0.32,0,0.42,0.03,0.42,0.18l-0.05,0.24l-0.32,1.14c-0.07,0.26-0.27,0.27-0.4,0.27h-3.32v2.83h2.89c0.32,0,0.37,0.04,0.37,0.36
		v1.12c0,0.31-0.07,0.36-0.37,0.36h-2.89v3.34h3.67c0.3,0,0.35,0.05,0.35,0.36v1.13C108.06,79.89,108.01,79.94,107.72,79.94"/>
	<path class="st0" d="M136.27,80.23c-0.1,0-0.22-0.21-0.4-0.53l-2.31-4.6h-0.82v4.48c0,0.3-0.05,0.35-0.35,0.35h-1.59
		c-0.28,0-0.35-0.05-0.35-0.35V68.6c0-0.3,0.07-0.35,0.35-0.35h2.76c1.32,0,3.98,0.08,3.98,3.3c0,2.2-1.32,2.83-1.94,3.16l2.54,4.56
		l0.15,0.33l-0.35,0.21l-1.45,0.41L136.27,80.23z M132.73,70.03v3.28h0.45c1.12,0,2.07-0.17,2.07-1.74c0-1.49-0.99-1.54-1.87-1.54
		H132.73z"/>
	<path class="st0" d="M164.43,80.23c-3.02,0-4.59-1.95-4.59-6.08c0-4.05,1.57-6.2,4.61-6.2c1.54,0,3.19,0.75,3.19,1.04l-0.1,0.26
		L167,70.38l-0.2,0.17c-0.1,0-1.05-0.75-2.22-0.75c-1.74,0-2.29,1.62-2.29,4.23c0,2.67,0.42,4.36,2.29,4.36
		c0.62,0,1.07-0.21,1.22-0.27v-2.47h-1.3c-0.27,0-0.35-0.05-0.35-0.36v-1.13c0-0.3,0.08-0.36,0.35-0.36h2.99
		c0.27,0,0.35,0.05,0.35,0.36v4.75C167.85,79.61,165.83,80.23,164.43,80.23"/>
	<path class="st0" d="M194.48,79.94h-1.57c-0.3,0-0.37-0.05-0.37-0.35v-4.45l-3.21-6.21l-0.11-0.36l0.35-0.19l1.72-0.27l0.18-0.02
		l0.25,0.22l1.39,2.93c0.18,0.4,0.45,0.97,0.67,1.86h0.05c0.3-1.01,0.52-1.54,0.75-2l1.27-2.66c0.15-0.34,0.2-0.34,0.27-0.34
		l0.28,0.03l1.44,0.31l0.3,0.22l-0.13,0.28l-3.17,6.21v4.45C194.86,79.89,194.78,79.94,194.48,79.94"/>
</g>
</svg>
