<?xml version="1.0" encoding="utf-8"?>
<!-- Generator: Adobe Illustrator 24.1.1, SVG Export Plug-In . SVG Version: 6.00 Build 0)  -->
<svg version="1.1" id="Capa_1" xmlns="http://www.w3.org/2000/svg" xmlns:xlink="http://www.w3.org/1999/xlink" x="0px" y="0px"
	 viewBox="0 0 100 100" style="enable-background:new 0 0 100 100;" xml:space="preserve">
<style type="text/css">
	.st0{fill:none;stroke:#FFFFFF;stroke-width:0.25;stroke-miterlimit:10;}
	.st1{fill:#00784C;}
</style>
<rect class="st0" width="100" height="100"/>
<g>
	<path class="st1" d="M90.6,12.5H9.4c-5.2,0-9.4,4.2-9.4,9.4v56.3c0,5.2,4.2,9.4,9.4,9.4h81.3c5.2,0,9.4-4.2,9.4-9.4V21.9
		C100,16.7,95.8,12.5,90.6,12.5L90.6,12.5z M90.6,18.8c0.4,0,0.8,0.1,1.2,0.2L50,55.2L8.2,19c0.4-0.2,0.8-0.2,1.2-0.2H90.6z
		 M90.6,81.3H9.4c-1.7,0-3.1-1.4-3.1-3.1V25.6L48,61.7c0.6,0.5,1.3,0.8,2,0.8c0.7,0,1.5-0.3,2-0.8l41.7-36.1v52.5
		C93.8,79.8,92.3,81.3,90.6,81.3L90.6,81.3z M90.6,81.3"/>
</g>
</svg>
