<?xml version="1.0" encoding="utf-8"?>
<!-- Generator: Adobe Illustrator 24.1.1, SVG Export Plug-In . SVG Version: 6.00 Build 0)  -->
<svg version="1.1" id="Capa_1" xmlns="http://www.w3.org/2000/svg" xmlns:xlink="http://www.w3.org/1999/xlink" x="0px" y="0px"
	 viewBox="0 0 100 100" style="enable-background:new 0 0 100 100;" xml:space="preserve">
<style type="text/css">
	.st0{fill:none;stroke:#FFFFFF;stroke-width:0.25;stroke-miterlimit:10;}
	.st1{fill:#00794C;}
</style>
<rect x="-0.3" y="0.1" class="st0" width="100" height="100"/>
<g>
	<path class="st1" d="M50,0C22.4,0,0,22.4,0,50s22.4,50,50,50s50-22.4,50-50S77.6,0,50,0L50,0z M50,93.7C25.9,93.7,6.3,74.1,6.3,50
		S25.9,6.2,50,6.2S93.8,25.9,93.8,50S74.1,93.7,50,93.7L50,93.7z M50,93.7"/>
	<path class="st1" d="M53.1,18.7h-6.2v32.5L66.5,71l4.4-4.4L53.1,48.7V18.7z M53.1,18.7"/>
</g>
</svg>
