<?xml version="1.0" encoding="utf-8"?>
<!-- Generator: Adobe Illustrator 24.0.2, SVG Export Plug-In . SVG Version: 6.00 Build 0)  -->
<svg version="1.1" id="Capa_1" xmlns="http://www.w3.org/2000/svg" xmlns:xlink="http://www.w3.org/1999/xlink" x="0px" y="0px"
	 viewBox="0 0 200 200" style="enable-background:new 0 0 200 200;" xml:space="preserve">
<style type="text/css">
	.st0{display:none;fill:#343A40;}
	.st1{display:none;fill:#FFFFFF;}
	.st2{fill:#FFFFFF;}
	.st3{display:none;}
	.st4{display:inline;fill:#FFFFFF;}
</style>
<rect y="0" class="st0" width="200" height="200"/>
<path class="st1" d="M127.5,82.8h-20.6V69.1c0-3.8,3.1-6.9,6.9-6.9h6.9V45h-13.8l0,0c-11.4,0-20.6,9.2-20.6,20.6v17.2H72.5V100h13.8
	v55h20.6v-55h13.8L127.5,82.8z"/>
<g>
	<path class="st2" d="M137.5,0h-75C28,0,0,28,0,62.5v75C0,172,28,200,62.5,200h75c34.5,0,62.5-28,62.5-62.5v-75
		C200,28,172,0,137.5,0z M181.2,137.5c0,24.1-19.6,43.7-43.7,43.7h-75c-24.1,0-43.7-19.6-43.7-43.7v-75c0-24.1,19.6-43.7,43.7-43.7
		h75c24.1,0,43.7,19.6,43.7,43.7V137.5z"/>
	<path class="st2" d="M100,50c-27.6,0-50,22.4-50,50s22.4,50,50,50s50-22.4,50-50S127.6,50,100,50z M100,131.3
		c-17.2,0-31.3-14-31.3-31.3s14-31.3,31.3-31.3s31.3,14,31.3,31.3C131.2,117.2,117.2,131.3,100,131.3z"/>
	<circle class="st2" cx="153.7" cy="46.3" r="6.7"/>
</g>
<g class="st3">
	<rect x="45" y="79.4" class="st4" width="24.6" height="75.6"/>
	<path class="st4" d="M136.6,80.3c-0.3-0.1-0.5-0.2-0.8-0.3c-0.3-0.1-0.7-0.1-1-0.2c-1.3-0.3-2.7-0.4-4.4-0.4l0,0l0,0
		c-14.3,0-23.4,10.4-26.4,14.5V79.4H79.4V155H104v-41.3c0,0,18.6-25.9,26.4-6.9c0,17,0,48.1,0,48.1H155v-51
		C155,92.5,147.2,83,136.6,80.3z"/>
	<circle class="st4" cx="57" cy="57" r="12"/>
</g>
<path class="st1" d="M150.3,69.5c-3-5.3-6.2-6.3-12.8-6.7c-6.6-0.5-23.2-0.6-37.5-0.6c-14.4,0-30.9,0.2-37.5,0.6
	c-6.6,0.4-9.8,1.3-12.8,6.7C46.6,74.8,45,83.9,45,100c0,0,0,0,0,0c0,0,0,0,0,0v0c0,16,1.6,25.2,4.7,30.4c3,5.3,6.3,6.3,12.8,6.7
	c6.6,0.4,23.2,0.6,37.5,0.6c14.3,0,30.9-0.2,37.5-0.6c6.6-0.4,9.8-1.4,12.8-6.7c3.1-5.3,4.7-14.4,4.7-30.4c0,0,0,0,0,0c0,0,0,0,0,0
	C155,83.9,153.4,74.8,150.3,69.5z M86.3,120.6V79.4l34.4,20.6L86.3,120.6z"/>
</svg>
