<?xml version="1.0" encoding="utf-8"?>
<!-- Generator: Adobe Illustrator 24.0.2, SVG Export Plug-In . SVG Version: 6.00 Build 0)  -->
<svg version="1.1" id="Capa_1" xmlns="http://www.w3.org/2000/svg" xmlns:xlink="http://www.w3.org/1999/xlink" x="0px" y="0px"
	 viewBox="0 0 200 200" style="enable-background:new 0 0 200 200;" xml:space="preserve">
<style type="text/css">
	.st0{display:none;fill:#343A40;}
	.st1{display:none;fill:#FFFFFF;}
	.st2{display:none;}
	.st3{display:inline;fill:#FFFFFF;}
	.st4{fill:#FFFFFF;}
</style>
<rect y="0" class="st0" width="200" height="200"/>
<path class="st1" d="M127.5,82.8h-20.6V69.1c0-3.8,3.1-6.9,6.9-6.9h6.9V45h-13.8l0,0c-11.4,0-20.6,9.2-20.6,20.6v17.2H72.5V100h13.8
	v55h20.6v-55h13.8L127.5,82.8z"/>
<g class="st2">
	<path class="st3" d="M120.6,45H79.4C60.4,45,45,60.4,45,79.4v41.3c0,19,15.4,34.4,34.4,34.4h41.3c19,0,34.4-15.4,34.4-34.4V79.4
		C155,60.4,139.6,45,120.6,45z M144.7,120.6c0,13.3-10.8,24.1-24.1,24.1H79.4c-13.3,0-24.1-10.8-24.1-24.1V79.4
		c0-13.3,10.8-24.1,24.1-24.1h41.3c13.3,0,24.1,10.8,24.1,24.1V120.6z"/>
	<path class="st3" d="M100,72.5c-15.2,0-27.5,12.3-27.5,27.5s12.3,27.5,27.5,27.5s27.5-12.3,27.5-27.5S115.2,72.5,100,72.5z
		 M100,117.2c-9.5,0-17.2-7.7-17.2-17.2s7.7-17.2,17.2-17.2s17.2,7.7,17.2,17.2C117.2,109.5,109.5,117.2,100,117.2z"/>
	<circle class="st3" cx="129.6" cy="70.4" r="3.7"/>
</g>
<g class="st2">
	<rect x="45" y="79.4" class="st3" width="24.6" height="75.6"/>
	<path class="st3" d="M136.6,80.3c-0.3-0.1-0.5-0.2-0.8-0.3c-0.3-0.1-0.7-0.1-1-0.2c-1.3-0.3-2.7-0.4-4.4-0.4l0,0l0,0
		c-14.3,0-23.4,10.4-26.4,14.5V79.4H79.4V155H104v-41.3c0,0,18.6-25.9,26.4-6.9c0,17,0,48.1,0,48.1H155v-51
		C155,92.5,147.2,83,136.6,80.3z"/>
	<circle class="st3" cx="57" cy="57" r="12"/>
</g>
<path class="st4" d="M191.5,44.5c-5.4-9.7-11.3-11.4-23.3-12.1c-12-0.8-42.1-1.1-68.2-1.1c-26.1,0-56.3,0.3-68.2,1.1
	c-12,0.7-17.9,2.5-23.3,12.1C2.9,54.1,0,70.7,0,100c0,0,0,0,0,0c0,0,0,0,0,0v0c0,29.1,2.9,45.8,8.5,55.4
	c5.5,9.7,11.4,11.4,23.3,12.2c12,0.7,42.1,1.1,68.2,1.1c26.1,0,56.2-0.4,68.2-1.1c12-0.8,17.9-2.6,23.3-12.2
	c5.6-9.5,8.5-26.3,8.5-55.4c0,0,0,0,0-0.1c0,0,0,0,0,0C200,70.7,197.1,54.1,191.5,44.5z M75,137.5v-75l62.5,37.5L75,137.5z"/>
</svg>
