<?xml version="1.0" encoding="utf-8"?>
<!-- Generator: Adobe Illustrator 24.1.1, SVG Export Plug-In . SVG Version: 6.00 Build 0)  -->
<svg version="1.1" id="Capa_1" xmlns="http://www.w3.org/2000/svg" xmlns:xlink="http://www.w3.org/1999/xlink" x="0px" y="0px"
	 viewBox="0 0 100 100" style="enable-background:new 0 0 100 100;" xml:space="preserve">
<style type="text/css">
	.st0{fill:none;stroke:#FFFFFF;stroke-width:0.25;stroke-miterlimit:10;}
	.st1{fill:#00774B;}
</style>
<rect class="st0" width="100" height="100"/>
<path class="st1" d="M75.7,66.1c-3.3-3.2-7.3-3.2-10.6,0c-2.5,2.4-4.9,4.9-7.4,7.4c-0.7,0.7-1.2,0.8-2,0.4c-1.6-0.9-3.3-1.6-4.8-2.5
	c-7.2-4.5-13.1-10.3-18.4-16.8c-2.6-3.2-5-6.7-6.6-10.6c-0.3-0.8-0.3-1.3,0.4-1.9c2.5-2.4,4.9-4.8,7.3-7.3c3.4-3.4,3.4-7.4,0-10.8
	c-1.9-1.9-3.9-3.9-5.8-5.8c-2-2-4-4-6-6c-3.3-3.2-7.3-3.2-10.6,0c-2.5,2.4-4.9,5-7.4,7.4c-2.3,2.2-3.5,4.9-3.8,8.1
	c-0.4,5.2,0.9,10,2.7,14.8C6.4,52.3,11.9,61,18.7,69c9.1,10.8,20,19.4,32.7,25.6c5.7,2.8,11.7,4.9,18.1,5.3
	c4.4,0.2,8.3-0.9,11.4-4.3c2.1-2.4,4.5-4.5,6.7-6.8c3.3-3.4,3.3-7.4,0-10.7C83.7,74,79.7,70.1,75.7,66.1L75.7,66.1z M75.7,66.1"/>
<path class="st1" d="M71.8,49.6l7.6-1.3c-1.2-7-4.5-13.4-9.6-18.4c-5.3-5.3-12.1-8.7-19.5-9.7l-1.1,7.7c5.7,0.8,11,3.4,15.1,7.5
	C68.3,39.2,70.8,44.2,71.8,49.6L71.8,49.6z M71.8,49.6"/>
<path class="st1" d="M83.7,16.3c-8.8-8.8-20-14.4-32.3-16.1l-1.1,7.7C61,9.4,70.6,14.2,78.3,21.8c7.2,7.2,12,16.4,13.7,26.4l7.6-1.3
	C97.6,35.3,92.1,24.7,83.7,16.3L83.7,16.3z M83.7,16.3"/>
</svg>
