<?xml version="1.0" encoding="utf-8"?>
<!-- Generator: Adobe Illustrator 24.1.1, SVG Export Plug-In . SVG Version: 6.00 Build 0)  -->
<svg version="1.1" id="Capa_1" xmlns="http://www.w3.org/2000/svg" xmlns:xlink="http://www.w3.org/1999/xlink" x="0px" y="0px"
	 viewBox="0 0 100 100" style="enable-background:new 0 0 100 100;" xml:space="preserve">
<style type="text/css">
	.st0{fill:none;stroke:#FFFFFF;stroke-width:0.25;stroke-miterlimit:10;}
	.st1{fill:#00774B;}
</style>
<rect class="st0" width="100" height="100"/>
<path class="st1" d="M50,0C31.6,0,16.7,15,16.7,33.3c0,5.5,1.4,11,4,15.8l27.5,49.8c0.4,0.7,1.1,1.1,1.8,1.1s1.5-0.4,1.8-1.1
	l27.5-49.8c2.6-4.8,4-10.3,4-15.8C83.3,15,68.4,0,50,0z M50,50c-9.2,0-16.7-7.5-16.7-16.7S40.8,16.7,50,16.7s16.7,7.5,16.7,16.7
	S59.2,50,50,50z"/>
</svg>
