<?xml version="1.0" encoding="utf-8"?>
<!-- Generator: Adobe Illustrator 24.0.2, SVG Export Plug-In . SVG Version: 6.00 Build 0)  -->
<svg version="1.1" id="Capa_1" xmlns="http://www.w3.org/2000/svg" xmlns:xlink="http://www.w3.org/1999/xlink" x="0px" y="0px"
	 viewBox="0 0 480 81" style="enable-background:new 0 0 480 81;" xml:space="preserve">
<style type="text/css">
	.st0{clip-path:url(#SVGID_2_);fill:#007142;}
	.st1{clip-path:url(#SVGID_4_);fill:#007142;}
	.st2{clip-path:url(#SVGID_6_);fill:#FFFFFF;}
	.st3{clip-path:url(#SVGID_6_);fill:#D9081D;}
	.st4{clip-path:url(#SVGID_6_);fill:#1D1D1B;}
</style>
<g>
	<g>
		<defs>
			<rect id="SVGID_1_" y="0.3" width="480" height="80.4"/>
		</defs>
		<clipPath id="SVGID_2_">
			<use xlink:href="#SVGID_1_"  style="overflow:visible;"/>
		</clipPath>
		<path class="st0" d="M218.4,61.1H2.7L48.2,0.3h216.1h-0.4L218.4,61.1 M100.7,15.9L85.8,35.6c0,0-2.7,3.6-1.4,7.1
			c1.3,3.6,4.8,5.4,8,5.7l7,0.4c0,0,0.6,0,1.4,0c2.1,0,6-0.2,8.7-1.4c3.9-1.7,7.5-5.3,8-5.8c0.4-0.5,19.7-25.9,19.7-25.9h-15.1
			l-14.8,20.4c0,0-1.5,2.3-4.8,2.3c-1.6,0-3.7-1.9-1.4-4.4c0.9-1,14-18.3,14-18.3H100.7 M82.4,16.1c-0.2,0-0.3,0-0.3,0l-20.9,0.1
			L37.7,47.9l13.1,0l5.7-7.1h12.5c0.3,0,0.6,0,1,0c9.4,0,13.1-5.8,13.1-5.8l4.6-6.2c0,0,3.2-4.3,1.5-8.8
			C87.9,16.3,83.6,16.1,82.4,16.1 M142.4,15.9l-24,31.9h13.2l12.2-15.2l0.7,7.5l13.8-7l-11.2,14.7h13.8l23.9-31.9H169l-13.9,8.3
			l-0.9-8.2H142.4 M185.1,41.3h9.4l-4.8,6.3h13.7c0,0,12.6-15.9,13.5-17.3c1-1.4,2.9-6,0.3-10.3c-2.4-4-7.7-4.2-8.5-4.2h-0.1h-18.1
			l-23.8,31.8h13.6L185.1,41.3 M202.6,31.3h-10.1l4-5.4h6.8c0.9,0,1.4,0.4,1.6,1c0.2,0.7-0.1,1.3-0.1,1.3L202.6,31.3 M69.7,31.1
			l-4.5,0l4.4-5.8H73c0,0,0.1,0,0.2,0c0.5,0,2.1,0.1,2.4,1.1c0.4,1.5-1.3,3.5-2.1,3.9C72.6,30.8,71.3,31.1,69.7,31.1"/>
	</g>
	<g>
		<defs>
			<path id="SVGID_3_" d="M196.6,25.9l-4,5.4h10.1l2.2-3.1c0,0,0.4-0.6,0.1-1.3c-0.2-0.6-0.7-1-1.6-1H196.6z M73,25.2h-3.5l-4.4,5.8
				l4.5,0c1.6,0,2.9-0.3,3.8-0.8c0.8-0.5,2.6-2.4,2.1-3.9c-0.3-1-1.8-1.1-2.4-1.1C73.1,25.2,73,25.2,73,25.2 M61.3,16.1l20.9-0.1
				c0,0,0.1,0,0.3,0c1.2,0,5.5,0.3,6.9,4c1.7,4.5-1.5,8.8-1.5,8.8L83.2,35c0,0-3.8,5.8-13.1,5.8c-0.3,0-0.6,0-1,0H56.6l-5.7,7.1
				l-13.1,0L61.3,16.1z M107.3,36.2l14.8-20.4h15.1c0,0-19.2,25.3-19.7,25.9c-0.4,0.5-4,4.1-8,5.8c-2.7,1.2-6.6,1.4-8.7,1.4
				c-0.9,0-1.4,0-1.4,0l-7-0.4c-3.1-0.3-6.7-2.1-8-5.7c-1.2-3.6,1.4-7.1,1.4-7.1l14.9-19.7h14.4c0,0-13.1,17.2-14,18.3
				c-2.2,2.5-0.2,4.4,1.4,4.4C105.8,38.5,107.3,36.2,107.3,36.2 M169,15.8h15.8l-23.9,31.9h-13.8L158.3,33l-13.8,7l-0.7-7.5
				l-12.2,15.2h-13.2l24-31.9h11.8l0.9,8.2L169,15.8z M190.4,15.8h18.1h0.1c0.8,0,6.2,0.2,8.5,4.2c2.6,4.4,0.7,8.9-0.3,10.3
				c-1,1.4-13.5,17.3-13.5,17.3h-13.7l4.8-6.3h-9.4l-4.9,6.3h-13.6L190.4,15.8z M48.2,0.3L2.7,61.1h215.7l45.5-60.8H48.2z"/>
		</defs>
		<clipPath id="SVGID_4_">
			<use xlink:href="#SVGID_3_"  style="overflow:visible;"/>
		</clipPath>
		<rect x="2.7" y="0.3" class="st1" width="261.6" height="60.8"/>
	</g>
	<g>
		<defs>
			<rect id="SVGID_5_" y="0.3" width="480" height="80.4"/>
		</defs>
		<clipPath id="SVGID_6_">
			<use xlink:href="#SVGID_5_"  style="overflow:visible;"/>
		</clipPath>
		<path class="st2" d="M37.7,47.9l23.5-31.7l20.9-0.1c0,0,0.1,0,0.3,0c1.2,0,5.5,0.3,6.9,4c1.7,4.5-1.5,8.8-1.5,8.8L83.2,35
			c0,0-3.8,5.8-13.1,5.8c-0.3,0-0.6,0-1,0H56.6l-5.7,7.1L37.7,47.9 M69.5,25.2l-4.4,5.8l4.5,0c1.6,0,2.9-0.3,3.8-0.8
			c0.8-0.5,2.6-2.4,2.1-3.9c-0.3-1-1.8-1.1-2.4-1.1c-0.1,0-0.2,0-0.2,0H69.5"/>
		<path class="st2" d="M100.8,48.8c-0.9,0-1.4,0-1.4,0l-7-0.4c-3.1-0.3-6.7-2.1-8-5.7c-1.2-3.6,1.4-7.1,1.4-7.1l14.9-19.7h14.4
			c0,0-13.1,17.2-14,18.3c-2.2,2.5-0.2,4.4,1.4,4.4c3.3,0,4.8-2.3,4.8-2.3l14.8-20.4h15.1c0,0-19.3,25.3-19.7,25.9
			c-0.4,0.5-4,4.1-8,5.8C106.8,48.6,102.9,48.8,100.8,48.8"/>
		<polygon class="st2" points="131.6,47.8 118.4,47.8 142.4,15.9 154.2,15.9 155.1,24.1 169,15.8 184.8,15.8 160.9,47.7 147.1,47.7 
			158.3,33 144.5,40.1 143.8,32.6 		"/>
		<path class="st2" d="M203.3,47.6h-13.7l4.8-6.3h-9.4l-4.9,6.3h-13.6l23.8-31.8h18.1h0.1c0.8,0,6.2,0.2,8.5,4.2
			c2.6,4.4,0.7,8.9-0.3,10.3C215.9,31.8,203.3,47.6,203.3,47.6 M196.6,25.9l-4,5.4h10.1l2.2-3.1c0,0,0.4-0.6,0.1-1.3
			c-0.2-0.6-0.7-1-1.6-1H196.6"/>
		<path class="st3" d="M434.5,61.1H218.4l45.5-60.8H480L434.5,61.1 M346.4,34.6c4.1,0,8.4,1.1,13.2,2.8c7.2,2.5,15.5,4.6,15.5,4.6
			c15.4,2.2,33.4,9.1,37,10.2c1.8,0.5,3.7,1,5.2,1c1.4,0,2.4-0.4,2.5-1.4c0.3-2.1-3-2.1-5.1-2.1c-2.1,0-5.8-1.5-5.8-1.5
			s-9.7-5.8-13-8.1c-3.3-2.2-4-4.2-1.5-4.6c0.5-0.1,1-0.1,1.5-0.1c2,0,3.8,0.6,5.8,0.7c2.6,0.2,3.8-0.2,5.7,1.3
			c0.6,0.5,1.2,0.7,1.6,0.7c0.8,0,1.2-0.7,1.2-0.7s3.1-2.1,4.2-3.7c1-1.6,0.1-2.4,0.1-2.4s-0.6-1.5-2.2-5.7
			c-1.4-3.7-6.1-4.4-7.5-4.4c-0.2,0-0.3,0-0.4,0c-0.1,0-0.1,0-0.2,0c-0.5,0-0.9-0.5-0.9-0.5l-1.5-1.9c0,0-4.4,3.6-7.7,3.6
			c-0.2,0-0.3,0-0.5,0c-5.8-0.8-6.1-4-22.1-6c-2.7-0.3-5.6-0.5-8.6-0.5c-14.9,0-32.2,3.4-35.2,3.9c-0.8,0.1-1.7,0.2-2.7,0.2
			c-3.3,0-6.9-0.6-6.9-0.6c-8.4-1.1-17.2-1.5-25.1-1.5c-15.8,0-28.3,1.5-28.3,1.5s-4.9,0.6-4.6,2.1c0.3,1.5,4.3,1.5,4.3,1.5l0.9,0
			c2.1,0,14.3-1.6,23.5-1.6h0.3c9.1,0,19.8,0.9,19.8,0.9h0.1c1.5,0,7.4,0.6,9.4,1c2.1,0.5,3,1.4,3.4,2.1c0.4,0.7,0.2,1.5-0.6,2.7
			c-0.8,1.2-4.8,4.2-6.9,5.6c-1.5,1-3.5,1.2-5.6,1.2c-0.9,0-1.9,0-2.8-0.1c-0.1,0-0.2,0-0.3,0c-2.9,0-4,1.8-4,1.8
			c-4.4,4.4-8.3,6.5-9.4,7.1c-1,0.6-2.6,1.5-3.5,2.1c-0.9,0.7-3.9,1.5-5.7,1.6c-1.8,0.2-2,0.9-2,0.9l-1.3,2.3
			c-0.8,1.2,0.6,1.3,0.6,1.3c1.6,0.3,3,0.4,4.2,0.4c4.8,0,7.2-2.1,13.4-5.8c5.3-3.2,8.3-3.8,11.4-3.8c1.6,0,3.1,0.2,5,0.3
			c1.2,0.1,2.4,0.1,3.6,0.1c3,0,5.9-0.3,8.5-1.6c3.6-1.8,7.9-3.9,13.6-6C342.3,34.9,344.3,34.6,346.4,34.6"/>
		<path class="st2" d="M417.4,53.1c-1.5,0-3.4-0.4-5.2-1c-3.6-1-21.6-7.9-37-10.1c0,0-8.4-2.1-15.5-4.6c-4.7-1.7-9.1-2.8-13.2-2.8
			c-2.1,0-4.1,0.3-6.1,1c-5.7,2.1-10,4.2-13.6,6c-2.6,1.3-5.5,1.6-8.5,1.6c-1.2,0-2.4-0.1-3.6-0.1c-1.9-0.1-3.5-0.3-5-0.3
			c-3.1,0-6.1,0.7-11.4,3.9c-6.2,3.7-8.6,5.8-13.4,5.8c-1.2,0-2.6-0.1-4.2-0.4c0,0-1.4-0.1-0.6-1.3l1.3-2.3c0,0,0.1-0.8,2-0.9
			c1.8-0.2,4.8-0.9,5.7-1.6c0.9-0.7,2.4-1.6,3.5-2.1c1-0.6,4.9-2.7,9.4-7.1c0,0,1.2-1.9,4-1.9c0.1,0,0.2,0,0.3,0
			c0.9,0,1.9,0.1,2.8,0.1c2.1,0,4.1-0.2,5.6-1.2c2.1-1.4,6.1-4.4,6.9-5.6c0.8-1.2,1-2,0.6-2.7c-0.5-0.7-1.3-1.6-3.4-2.1
			c-2-0.4-7.9-1-9.4-1h-0.1c0,0-10.7-0.8-19.8-0.9H289c-9.1,0-21.3,1.6-23.5,1.6l-0.9,0c0,0-4,0-4.3-1.5c-0.3-1.5,4.6-2.1,4.6-2.1
			s12.5-1.5,28.3-1.5c7.9,0,16.7,0.4,25.1,1.5c0,0,3.6,0.6,6.9,0.6c0.9,0,1.9,0,2.7-0.2c3-0.5,20.3-3.9,35.2-3.9
			c3,0,5.9,0.1,8.6,0.5c16,1.9,16.3,5.2,22.1,6c0.2,0,0.3,0,0.5,0c3.3,0,7.7-3.6,7.7-3.6l1.5,1.9c0,0,0.4,0.5,0.9,0.5
			c0.1,0,0.1,0,0.2,0c0.1,0,0.2,0,0.4,0c1.4,0,6.1,0.7,7.5,4.4c1.6,4.2,2.2,5.7,2.2,5.7s0.9,0.7-0.1,2.4c-1,1.6-4.2,3.7-4.2,3.7
			S410,38,409.1,38c-0.4,0-0.9-0.2-1.6-0.7c-1.9-1.5-3.1-1.2-5.7-1.3c-2-0.1-3.9-0.7-5.8-0.7c-0.5,0-1,0-1.5,0.1
			c-2.5,0.5-1.8,2.4,1.5,4.6c3.3,2.2,13,8.1,13,8.1s3.7,1.5,5.8,1.5c2.1,0,5.4,0,5.1,2.1C419.8,52.7,418.8,53.1,417.4,53.1"/>
		<path class="st4" d="M50.5,80h-5.6c-0.3,0-0.4,0-0.4-0.4v-11c0-0.3,0.1-0.4,0.4-0.4h5.6c0.3,0,0.4,0,0.4,0.2l-0.1,0.2l-0.3,1.1
			c0,0.3-0.2,0.3-0.4,0.3h-3.3V73h2.9c0.3,0,0.4,0,0.4,0.4v1.1c0,0.3-0.1,0.4-0.4,0.4h-2.9v3.3h3.6c0.3,0,0.4,0,0.4,0.4v1.1
			C50.8,79.9,50.7,80,50.5,80"/>
		<path class="st4" d="M80.7,80h-1.1c-0.2,0-0.3,0-0.4-0.2l-3.1-5.8c-0.5-0.9-0.8-1.5-1-2.3h0c0,0.2,0,1.1,0,1.9v6.1
			c0,0.3,0,0.4-0.3,0.4h-1.2c-0.3,0-0.3,0-0.3-0.4v-11c0-0.3,0-0.4,0.3-0.4h1.4c0.3,0,0.3,0,0.4,0.2l2.8,5.3c0.5,0.9,0.8,1.8,1,2.5
			h0c0-0.5,0-1.7,0-2.2v-5.4c0-0.3,0.1-0.4,0.3-0.4h1.2c0.3,0,0.4,0,0.4,0.4v11C81.1,79.9,81,80,80.7,80"/>
		<path class="st4" d="M110.1,80h-5.6c-0.3,0-0.4,0-0.4-0.4v-11c0-0.3,0.1-0.4,0.4-0.4h5.6c0.3,0,0.4,0,0.4,0.2l0,0.2l-0.3,1.1
			c-0.1,0.3-0.3,0.3-0.4,0.3h-3.3V73h2.9c0.3,0,0.4,0,0.4,0.4v1.1c0,0.3-0.1,0.4-0.4,0.4h-2.9v3.3h3.7c0.3,0,0.3,0,0.3,0.4v1.1
			C110.4,79.9,110.4,80,110.1,80"/>
		<path class="st4" d="M138.6,80.3c-0.1,0-0.2-0.2-0.4-0.5l-2.3-4.6H135v4.5c0,0.3,0,0.4-0.3,0.4h-1.6c-0.3,0-0.4,0-0.4-0.4v-11
			c0-0.3,0.1-0.4,0.4-0.4h2.8c1.3,0,4,0.1,4,3.3c0,2.2-1.3,2.8-1.9,3.2l2.5,4.5l0.2,0.3l-0.3,0.2l-1.4,0.4L138.6,80.3 M135,70.1v3.3
			h0.4c1.1,0,2.1-0.2,2.1-1.7c0-1.5-1-1.5-1.9-1.5H135"/>
		<path class="st4" d="M166.6,80.3c-3,0-4.6-1.9-4.6-6.1c0-4,1.6-6.2,4.6-6.2c1.5,0,3.2,0.7,3.2,1l-0.1,0.3l-0.5,1.1l-0.2,0.2
			c-0.1,0-1-0.7-2.2-0.7c-1.7,0-2.3,1.6-2.3,4.2c0,2.7,0.4,4.3,2.3,4.3c0.6,0,1.1-0.2,1.2-0.3v-2.5h-1.3c-0.3,0-0.4,0-0.4-0.4v-1.1
			c0-0.3,0.1-0.4,0.4-0.4h3c0.3,0,0.3,0.1,0.3,0.4v4.7C170,79.6,168,80.3,166.6,80.3"/>
		<path class="st4" d="M196.6,80H195c-0.3,0-0.4,0-0.4-0.4v-4.4l-3.2-6.2l-0.1-0.4l0.4-0.2l1.7-0.3l0.2,0l0.2,0.2l1.4,2.9
			c0.2,0.4,0.4,1,0.7,1.9h0c0.3-1,0.5-1.5,0.7-2l1.3-2.7c0.1-0.3,0.2-0.3,0.3-0.3l0.3,0l1.4,0.3l0.3,0.2l-0.1,0.3l-3.2,6.2v4.4
			C197,79.9,196.9,80,196.6,80"/>
	</g>
</g>
</svg>
